# xmcd CD database file
#
# Track frame offsets:
#	150
#	23999
#	59128
#	75217
#	104065
#	145171
#	166444
#	208104
#	247172
#
# Disc length: 3486 seconds
#
# Revision: 1
# Processed by: cddbd v1.5.2PL0 Copyright (c) Steve Scherf et al.
# Submitted via: CDex 1.82
#
DISCID=830d9c09
DTITLE=Dorantes Renaud Garcia-Fons - PASEO A DOS
DYEAR=2015
DGENRE=Jazz
TTITLE0=Molto enrollado (Bulerias)
TTITLE1=Palabras de ensueno (Malaguena)
TTITLE2=ntre las rosas (Guajiras)
TTITLE3=En el crisol de la noche (Solea)
TTITLE4=En el crisol de la noche (Solea)
TTITLE5=Como sueno infantil (Siguirilla)
TTITLE6=El rio os espera (Tangos)
TTITLE7=La promessa del alba (Rondena)
TTITLE8=Amanecer
EXTD=YEAR: 2015
EXTT0=
EXTT1=
EXTT2=
EXTT3=
EXTT4=
EXTT5=
EXTT6=
EXTT7=
EXTT8=
PLAYORDER=
